<?xml version="1.0" encoding="UTF-8" standalone="no"?><!DOCTYPE svg PUBLIC "-//W3C//DTD SVG 1.1//EN" "http://www.w3.org/Graphics/SVG/1.1/DTD/svg11.dtd"><svg width="100%" height="100%" viewBox="0 0 650 650" version="1.1" xmlns="http://www.w3.org/2000/svg" xmlns:xlink="http://www.w3.org/1999/xlink" xml:space="preserve" xmlns:serif="http://www.serif.com/" style="fill-rule:evenodd;clip-rule:evenodd;stroke-linejoin:round;stroke-miterlimit:2;"><path d="M117.193,490.114l0.038,-414.657l415.531,0l0,413.895l-262.754,0l-88.127,58.556l0.046,-57.794l-64.734,-0Z" style="fill:#003db6;"/><path d="M324.96,166.293l32.636,-0.001l-4.863,84.134l79.923,-30.218l19.261,60.411l-82.363,22.772l54.674,66.946l-52.648,38.12l-46.62,-72.216l-46.618,72.216l-52.648,-38.12l54.674,-66.946l-82.363,-22.772l19.261,-60.411l79.923,30.218l-4.863,-84.134l32.635,0Z" style="fill:#fff;"/><path d="M181.881,547.909l-64.697,42.988l0.009,-100.783l64.734,0l-0.046,57.794Z" style="fill:#ff0208;"/></svg>